<svg width="718" height="718" viewBox="0 0 718 718" fill="none" xmlns="http://www.w3.org/2000/svg">
<g filter="url(#filter0_d)">
<rect x="105.003" y="423.003" width="129" height="70" rx="8" transform="rotate(-90 105.003 423.003)" fill="white"/>
<rect x="612.003" y="294.003" width="129" height="70" rx="8" transform="rotate(90 612.003 294.003)" fill="white"/>
<rect x="294.003" y="105.003" width="129" height="70" rx="8" fill="white"/>
<rect x="423.003" y="612.003" width="129" height="70" rx="8" transform="rotate(-180 423.003 612.003)" fill="white"/>
<rect x="224.86" y="583.363" width="129" height="70" rx="8" transform="rotate(-135 224.86 583.363)" fill="white"/>
<rect x="492.146" y="133.643" width="129" height="70" rx="8" transform="rotate(45 492.146 133.643)" fill="white"/>
<rect x="133.643" y="224.86" width="129" height="70" rx="8" transform="rotate(-45 133.643 224.86)" fill="white"/>
<rect x="583.363" y="492.146" width="129" height="70" rx="8" transform="rotate(135 583.363 492.146)" fill="white"/>
</g>
<circle cx="358.503" cy="358.503" r="181.5" stroke="white" stroke-width="100" stroke-linejoin="bevel"/>
<line x1="361" y1="104.941" x2="364" y2="611.942" stroke="black" stroke-opacity="0.4" stroke-width="20"/>
<path d="M496.5 359.5C496.5 435.715 434.715 497.5 358.5 497.5C282.285 497.5 220.5 435.715 220.5 359.5C220.5 283.285 282.285 221.5 358.5 221.5C434.715 221.5 496.5 283.285 496.5 359.5Z" fill="#C4C4C4" stroke="#999999" stroke-width="25"/>
<circle cx="301.063" cy="342.88" r="22.5" transform="rotate(-30 301.063 342.88)" fill="white" stroke="black" stroke-width="20"/>
<circle cx="373.809" cy="300.88" r="22.5" transform="rotate(-30 373.809 300.88)" fill="white" stroke="black" stroke-width="20"/>
<circle cx="342.197" cy="416.126" r="22.5" transform="rotate(-30 342.197 416.126)" fill="white" stroke="black" stroke-width="20"/>
<circle cx="414.943" cy="374.126" r="22.5" transform="rotate(-30 414.943 374.126)" fill="white" stroke="black" stroke-width="20"/>
<defs>
<filter id="filter0_d" x="103.003" y="105.003" width="511" height="513" filterUnits="userSpaceOnUse" color-interpolation-filters="sRGB">
<feFlood flood-opacity="0" result="BackgroundImageFix"/>
<feColorMatrix in="SourceAlpha" type="matrix" values="0 0 0 0 0 0 0 0 0 0 0 0 0 0 0 0 0 0 127 0" result="hardAlpha"/>
<feOffset dy="4"/>
<feGaussianBlur stdDeviation="1"/>
<feComposite in2="hardAlpha" operator="out"/>
<feColorMatrix type="matrix" values="0 0 0 0 0 0 0 0 0 0 0 0 0 0 0 0 0 0 0.1 0"/>
<feBlend mode="normal" in2="BackgroundImageFix" result="effect1_dropShadow"/>
<feBlend mode="normal" in="SourceGraphic" in2="effect1_dropShadow" result="shape"/>
</filter>
</defs>
</svg>
