<svg width="500" height="500" viewBox="0 0 500 500" fill="none" xmlns="http://www.w3.org/2000/svg">
<path d="M271.395 350.755L283.697 333.358C289.619 324.984 299.261 320.033 309.517 320.1L352.517 320.382C381.361 320.57 395.152 285.011 373.723 265.703L332.036 228.142C321.665 218.797 321.255 202.664 331.139 192.805C348.928 175.059 331.455 145.269 307.284 152.133L264.265 164.35C256.395 166.585 247.962 165.657 240.766 161.764L206.34 143.138C184.519 131.332 158.275 148.331 160.127 173.072L160.801 182.084C161.418 190.329 158.203 198.398 152.085 203.959C135.919 218.652 143.129 245.471 164.482 250.08L168.51 250.949C187.716 255.094 197.314 276.748 187.487 293.762L177.92 310.324C167.729 327.967 176.797 350.492 196.37 356.153L200.412 357.322C221.419 363.398 236.04 382.419 236.509 404.282L237.742 461.786C237.862 467.391 233.351 472 227.744 472H202.545C200.812 472 199.407 470.595 199.407 468.863V442.968C199.407 441.58 198.495 440.356 197.164 439.961L184.627 436.235L161.927 427.245L149.926 420.929C148.71 420.289 147.218 420.515 146.247 421.487L127.693 440.04C126.468 441.265 124.482 441.265 123.257 440.04L57.4666 374.25C56.2414 373.025 56.2414 371.039 57.4666 369.813L75.7769 351.503C76.7587 350.521 76.9784 349.011 76.3169 347.79L70.0866 336.291L59.7647 312L56.0393 299.464C55.6438 298.133 54.4205 297.22 53.032 297.22H27.1373C25.4046 297.22 24 295.815 24 294.083V201.041C24 199.309 25.4046 197.904 27.1373 197.904H53.3752C54.7496 197.904 55.964 197.01 56.3714 195.697L60.3922 182.745L69.6427 160.152L75.873 148.654C76.5344 147.433 76.3148 145.922 75.333 144.941L57.0226 126.63C55.7975 125.405 55.7975 123.419 57.0226 122.194L122.813 56.4034C124.038 55.1782 126.024 55.1782 127.25 56.4034L145.803 74.9564C146.774 75.9283 148.266 76.1544 149.482 75.5144L161.483 69.199L184 59.7647L196.536 56.0393C197.867 55.6438 198.78 54.4205 198.78 53.032V27.1373C198.78 25.4046 200.185 24 201.917 24H294.959C296.691 24 298.096 25.4046 298.096 27.1373V53.3752C298.096 54.7496 298.99 55.964 300.303 56.3714L313.255 60.3922L335.848 69.6427L347.347 75.873C348.567 76.5344 350.078 76.3148 351.06 75.333L369.37 57.0226C370.595 55.7975 372.581 55.7975 373.807 57.0226L439.597 122.813C440.822 124.038 440.822 126.024 439.597 127.25L421.044 145.803C420.072 146.774 419.846 148.266 420.486 149.482L426.801 161.483L435.608 182.118L439.629 195.07C440.036 196.382 441.25 197.277 442.625 197.277H468.863C470.595 197.277 472 198.681 472 200.414V293.455C472 295.188 470.595 296.593 468.863 296.593H442.968C441.58 296.593 440.356 297.505 439.961 298.836L436.235 311.373L427.245 334.073L420.929 346.074C420.289 347.291 420.516 348.782 421.487 349.754L440.04 368.307C441.266 369.532 441.266 371.518 440.04 372.744L374.25 438.534C373.025 439.759 371.039 439.759 369.814 438.534L351.503 420.223C350.521 419.242 349.011 419.022 347.79 419.683L336.291 425.914L313.882 435.608L300.93 439.629C299.618 440.036 298.723 441.25 298.723 442.625V468.863C298.723 470.595 297.319 472 295.586 472H276.235" stroke="#FFE600" stroke-width="20" stroke-linecap="round"/>
</svg>
